<svg width="46" height="45" viewBox="0 0 46 45" fill="none" xmlns="http://www.w3.org/2000/svg">
<g clip-path="url(#clip0_769_26)">
<circle cx="22.5" cy="22.5" r="22.5" fill="white"/>
<path d="M18.5221 17.7837C18.5221 15.6664 17.0816 15.6664 17.0816 15.6664H11.1554V20.2096H16.7143C17.6749 20.2091 18.5221 19.9019 18.5221 17.7837Z" fill="#7CB124"/>
<path d="M17.0821 23.3477H11.1554V28.789H16.8084C17.6588 28.7646 19.2283 28.4983 19.2283 26.1441C19.2283 23.3192 17.0821 23.3477 17.0821 23.3477Z" fill="#7CB124"/>
<path d="M32.2544 20.2091C29.1095 20.2091 28.671 23.3477 28.671 23.3477H35.359C35.359 23.3477 35.3994 20.2091 32.2544 20.2091Z" fill="#7CB124"/>
<path d="M22.9018 0C10.102 0 0 10.1057 0 22.5C0 34.8943 9.64286 45 22.9592 45C35.3539 45 45.3444 34.8369 45.3444 22.4426C45.3444 10.0483 35.2965 0 22.9018 0ZM27.7948 13.2465H36.1952V15.7537H27.7948V13.2465ZM23.5492 26.3966C23.5492 32.6108 17.0821 32.4064 17.0821 32.4064H6.48735V12.0471H17.0816C20.3014 12.0471 22.843 13.8246 22.843 17.4678C22.843 21.1114 19.7362 21.3424 19.7362 21.3424C23.8316 21.3424 23.5492 26.3966 23.5492 26.3966ZM32.2944 29.6077C35.6786 29.6077 35.5587 27.4174 35.5587 27.4174H39.1417C39.1417 33.2302 32.175 32.8321 32.175 32.8321C23.8146 32.8321 24.3523 25.0489 24.3523 25.0489C24.3523 25.0489 24.3459 17.2272 32.1741 17.2272C40.4151 17.2272 39.2611 26.0642 39.2611 26.0642H28.7114C28.7114 29.8474 32.2944 29.6077 32.2944 29.6077Z" fill="#7CB124"/>
</g>
<defs>
<clipPath id="clip0_769_26">
<rect width="45.3444" height="45" rx="22.5" fill="white"/>
</clipPath>
</defs>
</svg>
