<svg width="45" height="45" viewBox="0 0 45 45" fill="none" xmlns="http://www.w3.org/2000/svg">
<ellipse cx="22.4996" cy="22.5" rx="22.4996" ry="22.5" fill="white"/>
<path d="M19.6971 26.7145L27.016 22.4983L19.6971 18.2822V26.7145Z" fill="#7CB124"/>
<path d="M22.4996 0C10.0753 0 0 10.0755 0 22.5C0 34.9245 10.0753 45 22.4996 45C34.9239 45 44.9993 34.9245 44.9993 22.5C44.9993 10.0755 34.9239 0 22.4996 0ZM36.5585 22.523C36.5585 22.523 36.5585 27.0861 35.9796 29.2865C35.6552 30.4908 34.7056 31.4405 33.5012 31.7646C31.3009 32.3438 22.4996 32.3438 22.4996 32.3438C22.4996 32.3438 13.7214 32.3438 11.498 31.7416C10.2937 31.4175 9.34406 30.4675 9.01963 29.2631C8.44045 27.0861 8.44045 22.5 8.44045 22.5C8.44045 22.5 8.44045 17.9372 9.01963 15.7369C9.34372 14.5325 10.3167 13.5595 11.498 13.2354C13.6984 12.6562 22.4996 12.6562 22.4996 12.6562C22.4996 12.6562 31.3009 12.6562 33.5012 13.2584C34.7056 13.5825 35.6552 14.5325 35.9796 15.7369C36.5818 17.9372 36.5585 22.523 36.5585 22.523Z" fill="#7CB124"/>
</svg>
