<svg width="45" height="45" viewBox="0 0 45 45" fill="none" xmlns="http://www.w3.org/2000/svg">
<g clip-path="url(#clip0_769_18)">
<circle cx="22.5" cy="22.5" r="25.5" fill="white"/>
<path d="M27 22.5C27 24.9853 24.9853 27 22.5 27C20.0147 27 18 24.9853 18 22.5C18 20.0147 20.0147 18 22.5 18C24.9853 18 27 20.0147 27 22.5Z" fill="#7CB124"/>
<path d="M33.4353 14.2269C33.2105 13.6178 32.8519 13.0665 32.386 12.614C31.9335 12.1481 31.3825 11.7895 30.7731 11.5647C30.2788 11.3728 29.5363 11.1443 28.1686 11.082C26.6892 11.0145 26.2456 11 22.5002 11C18.7544 11 18.3108 11.0142 16.8317 11.0816C15.4641 11.1443 14.7212 11.3728 14.2273 11.5647C13.6178 11.7895 13.0665 12.1481 12.6144 12.614C12.1485 13.0665 11.7899 13.6175 11.5647 14.2269C11.3728 14.7212 11.1443 15.4641 11.082 16.8317C11.0145 18.3108 11 18.7544 11 22.5002C11 26.2456 11.0145 26.6892 11.082 28.1686C11.1443 29.5363 11.3728 30.2788 11.5647 30.7731C11.7899 31.3825 12.1481 31.9335 12.614 32.386C13.0665 32.8519 13.6175 33.2105 14.2269 33.4353C14.7212 33.6276 15.4641 33.8561 16.8317 33.9184C18.3108 33.9858 18.754 34 22.4998 34C26.246 34 26.6896 33.9858 28.1683 33.9184C29.5359 33.8561 30.2788 33.6276 30.7731 33.4353C31.9965 32.9634 32.9634 31.9965 33.4353 30.7731C33.6272 30.2788 33.8557 29.5363 33.9184 28.1686C33.9858 26.6892 34 26.2456 34 22.5002C34 18.7544 33.9858 18.3108 33.9184 16.8317C33.8561 15.4641 33.6276 14.7212 33.4353 14.2269ZM22.5002 29.7029C18.5218 29.7029 15.2967 26.4782 15.2967 22.4998C15.2967 18.5214 18.5218 15.2967 22.5002 15.2967C26.4782 15.2967 29.7033 18.5214 29.7033 22.4998C29.7033 26.4782 26.4782 29.7029 22.5002 29.7029ZM29.9881 16.6953C29.0584 16.6953 28.3047 15.9416 28.3047 15.0119C28.3047 14.0823 29.0584 13.3286 29.9881 13.3286C30.9177 13.3286 31.6714 14.0823 31.6714 15.0119C31.671 15.9416 30.9177 16.6953 29.9881 16.6953Z" fill="#7CB124"/>
<path d="M22.5 -3C8.41889 -3 -3 8.41889 -3 22.5C-3 36.5811 8.41889 48 22.5 48C36.5811 48 48 36.5811 48 22.5C48 8.41889 36.5811 -3 22.5 -3ZM37.0543 28.5369C36.9834 30.0956 36.7356 31.1598 36.3737 32.0913C35.613 34.0582 34.0582 35.613 32.0913 36.3737C31.1602 36.7356 30.0956 36.983 28.5373 37.0543C26.9758 37.1255 26.477 37.1426 22.5004 37.1426C18.5234 37.1426 18.025 37.1255 16.4631 37.0543C14.9048 36.983 13.8402 36.7356 12.9091 36.3737C11.9317 36.006 11.0469 35.4298 10.3154 34.6846C9.57063 33.9535 8.99437 33.0683 8.62667 32.0913C8.26481 31.1602 8.01695 30.0956 7.94614 28.5373C7.87415 26.9754 7.85742 26.4766 7.85742 22.5C7.85742 18.5234 7.87415 18.0246 7.94575 16.4631C8.01656 14.9044 8.26403 13.8402 8.62589 12.9087C8.99359 11.9317 9.57024 11.0465 10.3154 10.3154C11.0465 9.57024 11.9317 8.99398 12.9087 8.62628C13.8402 8.26442 14.9044 8.01695 16.4631 7.94575C18.0246 7.87454 18.5234 7.85742 22.5 7.85742C26.4766 7.85742 26.9754 7.87454 28.5369 7.94614C30.0956 8.01695 31.1598 8.26442 32.0913 8.62589C33.0683 8.99359 33.9535 9.57024 34.685 10.3154C35.4298 11.0469 36.0064 11.9317 36.3737 12.9087C36.736 13.8402 36.9834 14.9044 37.0546 16.4631C37.1258 18.0246 37.1426 18.5234 37.1426 22.5C37.1426 26.4766 37.1258 26.9754 37.0543 28.5369Z" fill="#7CB124"/>
</g>
<defs>
<clipPath id="clip0_769_18">
<rect width="44.9993" height="45" rx="22.4996" fill="white"/>
</clipPath>
</defs>
</svg>
