<svg width="45" height="45" viewBox="0 0 45 45" fill="none" xmlns="http://www.w3.org/2000/svg">
<ellipse cx="22.4996" cy="22.5" rx="22.4996" ry="22.5" fill="white"/>
<path d="M22.4996 45C34.9194 45 44.9993 34.92 44.9993 22.5C44.9993 10.08 34.9194 0 22.4996 0C10.0798 0 0 10.08 0 22.5C0 34.92 10.0798 45 22.4996 45ZM31.6345 33.105V33.1069C30.1214 33.1069 25.3421 27.8044 11.9098 30.5569C11.5554 30.6488 11.0923 30.7931 10.8298 30.7931C9.11423 30.7931 8.78611 28.2262 10.6311 27.8344C18.0616 26.1938 25.6552 26.3381 32.1314 30.2119C33.6763 31.1981 33.0201 33.105 31.6345 33.105ZM34.0776 27.1556C33.8657 27.0994 33.9276 27.285 32.9582 26.775C27.2864 23.4187 18.8341 22.065 11.3117 24.1069C10.8767 24.225 10.6405 24.3431 10.2317 24.3431C8.22362 24.3431 7.69113 21.3225 9.87922 20.7056C18.7216 18.2213 28.207 19.6706 34.8107 23.5988C35.5457 24.0338 35.8363 24.5981 35.8363 25.3856C35.8269 26.3644 35.0657 27.1556 34.0776 27.1556ZM8.52736 13.1213C17.0078 10.6388 29.842 11.4225 37.8219 16.08C39.8675 17.2594 39.0631 20.2425 36.8882 20.2425L36.8863 20.2406C36.4138 20.2406 36.1232 20.1225 35.7144 19.8862C29.2589 16.0312 17.7072 15.1069 10.2336 17.1938C9.90547 17.2838 9.49672 17.4281 9.06173 17.4281C7.86362 17.4281 6.94864 16.4925 6.94864 15.2869C6.94864 14.055 7.71175 13.3575 8.52736 13.1213Z" fill="#7CB124"/>
</svg>
