<svg width="45" height="45" viewBox="0 0 45 45" fill="none" xmlns="http://www.w3.org/2000/svg">
<g clip-path="url(#clip0_769_29)">
<rect width="44.9993" height="45" rx="22.4996" fill="white"/>
<ellipse cx="22.4996" cy="22.5" rx="22.4996" ry="22.5" fill="white"/>
<path d="M22.4996 0C10.0753 0 0 10.0755 0 22.5C0 34.9245 10.0753 45 22.4996 45C34.9239 45 44.9993 34.9245 44.9993 22.5C44.9993 10.0755 34.9239 0 22.4996 0ZM15.9615 34.0137H10.4818V17.5277H15.9615V34.0137ZM13.2218 15.2765H13.1861C11.3473 15.2765 10.1581 14.0107 10.1581 12.4286C10.1581 10.8109 11.3837 9.58008 13.2582 9.58008C15.1327 9.58008 16.2863 10.8109 16.322 12.4286C16.322 14.0107 15.1327 15.2765 13.2218 15.2765ZM35.7201 34.0137H30.2411V25.1941C30.2411 22.9776 29.4477 21.4659 27.465 21.4659C25.9513 21.4659 25.0498 22.4856 24.6536 23.4699C24.5087 23.8221 24.4734 24.3145 24.4734 24.8071V34.0137H18.994C18.994 34.0137 19.0658 19.0743 18.994 17.5277H24.4734V19.8619C25.2015 18.7386 26.5044 17.1407 29.4116 17.1407C33.0168 17.1407 35.7201 19.497 35.7201 24.5606V34.0137Z" fill="#7CB124"/>
</g>
<defs>
<clipPath id="clip0_769_29">
<rect width="44.9993" height="45" rx="22.4996" fill="white"/>
</clipPath>
</defs>
</svg>
