<svg width="45" height="45" viewBox="0 0 45 45" fill="none" xmlns="http://www.w3.org/2000/svg">
<g clip-path="url(#clip0_769_15)">
<ellipse cx="22.9409" cy="22.5" rx="22.0585" ry="22.5" fill="white"/>
<path d="M44.9993 22.5C44.9993 10.0723 34.9272 0 22.4996 0C10.0721 0 0 10.0723 0 22.5C0 34.9277 10.0721 45 22.4996 45C22.6315 45 22.7633 45 22.8951 44.9912V27.4834H18.0612V21.8496H22.8951V17.7012C22.8951 12.8936 25.8306 10.2744 30.1196 10.2744C32.1762 10.2744 33.9428 10.4238 34.4526 10.4941V15.5215H31.4995C29.1704 15.5215 28.7134 16.6289 28.7134 18.2549V21.8408H34.2944L33.5649 27.4746H28.7134V44.1299C38.1175 41.4316 44.9993 32.7744 44.9993 22.5Z" fill="#7CB124"/>
</g>
<defs>
<clipPath id="clip0_769_15">
<rect width="44.9994" height="45" rx="22.4997" fill="white"/>
</clipPath>
</defs>
</svg>
