<svg width="45" height="45" viewBox="0 0 45 45" fill="none" xmlns="http://www.w3.org/2000/svg">
<circle cx="22.5" cy="22.5" r="22.5" fill="#7CB124"/>
<path d="M8.17194 32.87L8.13873 32.9104L8.87474 33.8121C9.07949 34.0629 9.29116 34.3063 9.50629 34.5374C9.61696 34.6564 9.72799 34.7746 9.80823 34.8476L9.87705 34.9158C10.0583 35.097 10.2402 35.2782 10.4336 35.4647C10.593 35.6161 10.7594 35.7614 10.9458 35.9222L11.0208 35.9838C11.0796 36.0277 11.135 36.0737 11.1917 36.1211L11.2999 36.2103C11.5351 36.4054 11.7703 36.5839 11.9772 36.7274C12.249 36.9315 12.5475 37.1348 12.8851 37.3496L12.8498 37.3638L13.1389 37.508C13.2371 37.5682 13.3343 37.6284 13.4405 37.6917C13.7393 37.865 14.0392 38.0296 14.3041 38.1576C14.4069 38.2115 14.5165 38.2662 14.6261 38.3198L14.8295 38.4184C14.9499 38.473 15.072 38.5197 15.1923 38.5726C15.3113 38.6252 15.431 38.676 15.552 38.7265C15.6015 38.7469 15.6499 38.7698 15.6994 38.7895L15.9899 38.9517H16.1123C16.113 38.9517 16.1144 38.9524 16.1151 38.9524L16.3427 39.0381L16.3503 39.0347C16.417 39.0579 16.4834 39.0828 16.5495 39.1046C16.628 39.1308 16.7089 39.1537 16.7881 39.1793C16.8936 39.2132 16.9991 39.2464 17.1053 39.2782C17.1357 39.2875 17.1655 39.2982 17.1963 39.3065C17.2682 39.3328 17.318 39.3449 17.3256 39.3463C17.4647 39.3875 17.5992 39.4227 17.7275 39.4553C17.7839 39.4701 17.8413 39.4822 17.898 39.4964C17.9143 39.4999 17.935 39.5058 17.9513 39.5092C17.9582 39.5113 17.9655 39.512 17.9724 39.5134C18.4597 39.6323 18.9543 39.733 19.4565 39.8087C19.4918 39.8146 19.5274 39.8222 19.5627 39.8278L19.7505 39.8513C19.8553 39.8641 19.9594 39.8748 20.0642 39.8866C20.1576 39.8973 20.2496 39.9094 20.344 39.918C20.3575 39.9194 20.3717 39.9215 20.3858 39.9229C20.6286 39.9454 20.8687 39.9668 21.0841 39.9744C21.3882 39.991 21.6925 40 22 40C22.2549 40 22.5008 39.9931 22.7388 39.9817C22.8373 39.9775 22.9342 39.9716 23.0321 39.9661C23.2247 39.9554 23.4253 39.9398 23.6356 39.9201C23.6878 39.9149 23.7404 39.9108 23.793 39.9052C23.8324 39.9007 23.8673 39.8987 23.9088 39.8938L24.1662 39.8634C24.3851 39.8385 24.613 39.8046 24.7773 39.7721C24.834 39.7634 24.8907 39.7486 24.9475 39.7392C25.1515 39.7032 25.3552 39.6666 25.5565 39.6234C25.5586 39.6227 25.5614 39.6227 25.5638 39.622C25.7222 39.5912 25.8858 39.5538 26.0338 39.5186C26.102 39.5026 26.1687 39.4829 26.2365 39.4653C26.2407 39.4639 26.2458 39.4632 26.25 39.4618C26.3569 39.4342 26.4641 39.4079 26.5689 39.3788L26.8933 39.2861C26.9483 39.2692 26.9936 39.2529 27.0476 39.2349C27.0496 39.2343 27.051 39.2336 27.0534 39.2329C27.197 39.1876 27.3429 39.1416 27.4661 39.0976L27.7013 39.024C27.9818 38.9219 28.2622 38.813 28.5109 38.7068C28.5427 38.694 28.5742 38.6778 28.6067 38.6643C28.615 38.6605 28.623 38.6563 28.6313 38.6529C28.8765 38.5501 29.1217 38.4412 29.3604 38.3284C29.6409 38.196 29.9127 38.0493 30.1821 37.9027C30.4215 37.773 30.648 37.6377 30.8739 37.5011L31.1374 37.3382C31.3159 37.2213 31.4902 37.1072 31.6645 36.984C31.7417 36.9342 31.8247 36.8786 31.8876 36.8301C32.0505 36.7112 32.2141 36.5908 32.3742 36.467L32.5195 36.3577C32.7398 36.1837 32.9595 36.0014 33.1711 35.8202L33.3717 35.648L33.3814 35.6296C33.5436 35.4837 33.7031 35.3301 33.8687 35.1707C34.0856 34.9625 34.3011 34.7387 34.5114 34.5125C34.7196 34.2887 34.9215 34.0563 35.1149 33.8249L35.8678 32.9208L35.8267 32.8713C37.8213 30.0854 39 26.6783 39 23C39 19.3217 37.8213 15.9145 35.8281 13.1293L35.8692 13.0798L35.1163 12.1761C34.9236 11.9443 34.7209 11.7126 34.5114 11.4861C34.308 11.2685 34.0991 11.0582 33.8597 10.8203C33.701 10.6688 33.5436 10.5169 33.3821 10.371L33.1718 10.1804C32.9601 9.99919 32.7405 9.81657 32.5202 9.64294L32.3749 9.534C32.2155 9.40983 32.0547 9.29154 31.9025 9.18052C31.8267 9.1238 31.743 9.06708 31.6652 9.01762C31.4909 8.89414 31.3166 8.78035 31.1381 8.66345L30.9043 8.51023L30.8746 8.50055C30.6494 8.36358 30.4222 8.22835 30.1856 8.10003C29.9134 7.952 29.6409 7.80466 29.3611 7.67323C29.0826 7.54146 28.7966 7.41107 28.5365 7.30558C28.2629 7.18798 27.9835 7.07869 27.7019 6.97735L27.4937 6.91302C27.2962 6.84212 27.0988 6.77917 26.8643 6.70688L26.5651 6.62111C26.4081 6.57649 26.2431 6.53187 26.0778 6.49314L25.8817 6.44541C25.7883 6.42431 25.6918 6.40217 25.5998 6.38453L25.4632 6.33992H25.3943C25.2421 6.30602 25.0855 6.27697 24.9305 6.25138L24.8313 6.2372C24.6123 6.19535 24.3844 6.16145 24.2059 6.14174L23.8559 6.09989C23.8241 6.09643 23.793 6.09435 23.7608 6.09124C23.7349 6.08847 23.7079 6.0864 23.6816 6.08432C23.4557 6.06288 23.2327 6.04524 23.0258 6.03383C22.9356 6.02829 22.8449 6.02345 22.7543 6.01895C22.2134 5.99163 21.6493 5.99509 21.1741 6.02137C21.0247 6.02829 20.8759 6.04178 20.7272 6.05319C20.6138 6.06219 20.5003 6.06668 20.3879 6.07775C20.3758 6.07948 20.363 6.08086 20.3509 6.08225C20.2468 6.09193 20.1441 6.10542 20.0407 6.11753C19.9359 6.12963 19.8318 6.13966 19.727 6.15315L19.5769 6.1701C19.5385 6.17563 19.4984 6.18428 19.46 6.1905C19.0996 6.24515 18.7437 6.31294 18.3912 6.38972L18.3771 6.39249C18.2522 6.41566 18.1353 6.44402 17.9959 6.48034C17.9534 6.48933 17.9122 6.50075 17.8697 6.51078C17.8244 6.52219 17.7791 6.53187 17.7344 6.54329C17.6047 6.5758 17.4802 6.60831 17.374 6.64048C17.3391 6.64947 17.2782 6.66503 17.2018 6.69201L17.1679 6.70135C16.9462 6.76153 16.7321 6.82932 16.5543 6.894C16.4862 6.91648 16.4198 6.94138 16.3517 6.9649L16.3434 6.96109L16.1002 7.0524C16.0988 7.05344 16.0975 7.05344 16.0961 7.05413L15.9643 7.0569L15.4884 7.29831C15.3891 7.33947 15.2912 7.3834 15.193 7.42663C15.0727 7.47955 14.9499 7.52728 14.8302 7.58089L14.6268 7.67946C14.5172 7.73411 14.4069 7.78772 14.3571 7.81608C14.1765 7.90185 13.9967 7.99593 13.8614 8.07478C13.7452 8.13635 13.6231 8.20275 13.5055 8.27089L13.1673 8.47357C13.1607 8.47703 13.1545 8.48118 13.1486 8.48567L12.8505 8.63647L12.8851 8.64996C12.8307 8.68455 12.7747 8.71775 12.7201 8.75337L12.5779 8.84953L12.5734 8.85402C12.3773 8.98407 12.1916 9.11446 12.0436 9.22514C11.9996 9.25419 11.9557 9.28601 11.8879 9.33616C11.7278 9.44822 11.5697 9.56651 11.4168 9.69759C11.375 9.72941 11.3397 9.75708 11.3114 9.78025L10.9721 10.0608C10.7898 10.2102 10.6065 10.3689 10.4083 10.5588L10.1928 10.7677C10.0548 10.8912 9.92375 11.0212 9.79335 11.1651C9.6934 11.2609 9.60071 11.3598 9.51078 11.4577C9.29047 11.6936 9.07949 11.9371 8.87474 12.1878L8.13873 13.0898L8.17194 13.13C6.17802 15.9152 5 19.3217 5 23C5 26.6783 6.17802 30.0847 8.17194 32.87ZM20.5934 8.90486C21.0565 8.85886 21.5255 8.83327 22 8.83327C22.9646 8.83327 23.9068 8.93184 24.8178 9.11653C24.834 9.12034 24.851 9.12241 24.8665 9.12656L25.0326 9.18121H25.0799C27.7991 9.78682 30.2243 11.1717 32.1093 13.0947C30.5363 14.6898 28.596 15.8997 26.4817 16.608L26.4703 16.572L26.4115 16.5904C26.3932 16.5451 26.3697 16.5011 26.3506 16.4558C26.2393 16.1909 26.121 15.9294 25.9965 15.67C25.9539 15.5815 25.9135 15.4915 25.8689 15.4037C25.699 15.0668 25.5199 14.7344 25.3286 14.4093C25.2996 14.3599 25.2667 14.3121 25.237 14.2634C25.0713 13.9888 24.8977 13.7193 24.7171 13.4544C24.6514 13.3582 24.584 13.2638 24.5162 13.1691C24.3547 12.9425 24.1873 12.7208 24.0154 12.5026C23.9486 12.4182 23.8836 12.3324 23.8154 12.2497C23.5775 11.9592 23.3316 11.6746 23.0753 11.4003C23.0504 11.374 23.0241 11.3494 22.9989 11.3232C22.7644 11.0759 22.5219 10.8365 22.2743 10.6034C22.1892 10.5235 22.1027 10.446 22.0156 10.3682C21.8122 10.1849 21.6047 10.0071 21.393 9.83352C21.3045 9.76123 21.2166 9.68756 21.1267 9.61666C20.8355 9.38804 20.5387 9.16565 20.2326 8.95571C20.3219 8.94464 20.4083 8.92458 20.4983 8.91559C20.5301 8.91178 20.5615 8.90763 20.5934 8.90486ZM24.8984 36.8664C24.8717 36.8727 24.8434 36.8779 24.8164 36.8841C24.3695 36.9747 23.9161 37.0449 23.4551 37.0923C23.4478 37.093 23.4402 37.0937 23.4329 37.0944C22.9619 37.1418 22.4839 37.1667 22 37.1667C21.5241 37.1667 21.0537 37.1411 20.5899 37.0951C20.5609 37.0923 20.5311 37.0888 20.5021 37.0854C20.4104 37.0754 20.3232 37.0556 20.2326 37.0442C20.5387 36.8346 20.8355 36.6122 21.1267 36.3833C21.2166 36.3124 21.3045 36.2387 21.393 36.1664C21.6047 35.9931 21.8122 35.8154 22.0156 35.6317C22.102 35.5539 22.1892 35.4768 22.2743 35.3965C22.5229 35.1634 22.7651 34.9241 22.9989 34.6768C23.0234 34.6508 23.0504 34.6259 23.0753 34.5996C23.3316 34.3257 23.5768 34.0407 23.8154 33.7505C23.8836 33.6675 23.9486 33.5818 24.0154 33.4977C24.1873 33.2795 24.3547 33.0571 24.5162 32.8309C24.584 32.7361 24.6514 32.641 24.7171 32.5455C24.8977 32.2806 25.0713 32.0115 25.237 31.7366C25.2667 31.6878 25.2996 31.6397 25.3286 31.5906C25.5206 31.2655 25.699 30.9341 25.8689 30.5962C25.9135 30.5084 25.9539 30.4185 25.9965 30.3299C26.121 30.0712 26.2393 29.8101 26.3506 29.5445C26.3697 29.4991 26.3925 29.4552 26.4115 29.4099L26.4703 29.4282L26.4817 29.3919C28.596 30.1003 30.5363 31.3101 32.1093 32.9052C30.1828 34.8725 27.6923 36.2826 24.8984 36.8664ZM23.5816 28.8174C23.4288 29.1547 23.26 29.4843 23.0815 29.807C23.0469 29.8703 23.013 29.9346 22.9774 29.9968C22.79 30.324 22.5894 30.6436 22.3763 30.9546C22.3331 31.0185 22.2878 31.0808 22.2431 31.143C22.0183 31.4612 21.7845 31.7729 21.5348 32.071C21.5282 32.0779 21.522 32.0852 21.5154 32.0928C21.2675 32.3875 21.0056 32.6694 20.7348 32.9429C20.6847 32.9938 20.6352 33.0457 20.584 33.0958C20.3136 33.3621 20.0324 33.6174 19.7411 33.8616C19.6865 33.9076 19.6298 33.9522 19.5748 33.9968C19.2701 34.2448 18.9585 34.4841 18.634 34.7065C18.6326 34.7076 18.6313 34.7089 18.6299 34.7096C18.3048 34.932 17.9669 35.1375 17.6241 35.3322C17.5601 35.3682 17.4972 35.4052 17.4335 35.4404C17.0977 35.6248 16.7543 35.7953 16.4035 35.952C16.3828 35.961 16.3617 35.9696 16.3413 35.979C15.9933 35.8264 15.6513 35.6642 15.3189 35.4858C15.2795 35.4647 15.2397 35.4432 15.2006 35.4221C13.9752 34.7484 12.8626 33.8972 11.8907 32.9052C14.9267 29.8191 19.2452 28.2651 23.6114 28.7586C23.6017 28.778 23.591 28.7977 23.5816 28.8174ZM14.0665 11.2692C14.0766 11.263 14.0866 11.2557 14.0963 11.2488C14.8011 10.7736 15.5534 10.3655 16.3406 10.0206C16.3624 10.0303 16.3859 10.039 16.4077 10.049C16.7563 10.2046 17.0977 10.3741 17.4311 10.5567C17.4972 10.5927 17.5615 10.6304 17.6276 10.6677C17.9696 10.8628 18.3062 11.0669 18.6306 11.2886C18.6326 11.29 18.6347 11.292 18.6375 11.2934C18.9612 11.5151 19.2722 11.7538 19.5755 12.0011C19.6315 12.0464 19.6872 12.091 19.7425 12.137C20.0338 12.3815 20.3149 12.6364 20.5854 12.9027C20.6366 12.9522 20.6854 13.0041 20.7355 13.0549C21.007 13.3292 21.2699 13.6118 21.5175 13.9064C21.5234 13.9134 21.5296 13.9199 21.5362 13.9268C21.7863 14.226 22.0197 14.5376 22.2452 14.8555C22.2891 14.9178 22.3345 14.9804 22.3777 15.0433C22.59 15.3542 22.7913 15.6738 22.9788 16.0017C23.0151 16.0646 23.0483 16.1286 23.0829 16.1916C23.2617 16.5153 23.4302 16.8439 23.583 17.1811C23.5924 17.2008 23.6024 17.2198 23.6114 17.2406C19.2438 17.7373 14.9267 16.1795 11.8907 13.0933C12.553 12.4175 13.2797 11.8032 14.0665 11.2692ZM22 20.1666C22.8346 20.1666 23.6716 20.0981 24.5034 19.9754C24.7192 20.9656 24.8333 21.9779 24.8333 23C24.8333 24.022 24.7192 25.0344 24.5034 26.0246C23.6716 25.9021 22.8346 25.8333 22 25.8333C17.5228 25.8333 13.2818 27.581 10.1119 30.6782C8.67621 28.4633 7.83333 25.8305 7.83333 23C7.83333 20.1694 8.67621 17.5367 10.1119 15.3217C13.2818 18.4193 17.5228 20.1666 22 20.1666ZM33.8815 30.6889C32.0256 28.8814 29.7761 27.5028 27.326 26.6911L27.3502 26.6146L27.2765 26.5977C27.5307 25.4196 27.6667 24.2157 27.6667 23C27.6667 21.7846 27.5307 20.5803 27.2765 19.4016L27.3502 19.3846L27.326 19.3082C29.7761 18.4964 32.0256 17.1182 33.8815 15.3103C35.321 17.528 36.1667 20.1652 36.1667 23C36.1667 25.8347 35.321 28.4719 33.8815 30.6889Z" fill="white"/>
</svg>
