<svg width="123" height="50" viewBox="0 0 123 50" fill="none" xmlns="http://www.w3.org/2000/svg">
<path d="M61.7395 38.8765H62.6885V43.0522C62.6885 43.7734 62.6126 44.3618 62.4418 44.7794C62.271 45.197 61.9863 45.5576 61.5497 45.8233C61.1132 46.0891 60.5627 46.2219 59.8604 46.2219C59.1771 46.2219 58.6267 46.108 58.2091 45.8803C57.7726 45.6525 57.4689 45.3108 57.2791 44.8743C57.0893 44.4377 56.9944 43.8304 56.9944 43.0712V38.8954H57.9434V43.0522C57.9434 43.6785 58.0004 44.1341 58.1142 44.4377C58.2281 44.7414 58.4369 44.9692 58.7216 45.121C59.0063 45.2729 59.348 45.3678 59.7655 45.3678C60.4678 45.3678 60.9613 45.2159 61.265 44.8933C61.5687 44.5706 61.7205 43.9632 61.7205 43.0522L61.7395 38.8765ZM77.3226 46.0891V38.8765H82.1816V39.7306H78.2716V41.9703H81.6501V42.8244H78.2716V46.108L77.3226 46.0891ZM96.379 46.0891V38.8765H99.0932C99.6437 38.8765 100.08 38.9524 100.422 39.0852C100.764 39.2371 101.01 39.4649 101.2 39.7685C101.39 40.0722 101.485 40.3949 101.485 40.7176C101.485 41.0213 101.409 41.3249 101.238 41.5907C101.067 41.8564 100.82 42.0842 100.479 42.255C100.915 42.3879 101.257 42.5966 101.485 42.9003C101.713 43.204 101.845 43.5646 101.845 44.0012C101.845 44.3428 101.769 44.6465 101.637 44.9502C101.504 45.2539 101.314 45.4627 101.105 45.6145C100.896 45.7664 100.631 45.8992 100.308 45.9752C99.9853 46.0511 99.6057 46.0891 99.1502 46.0891H96.379ZM97.3281 41.9133H98.8844C99.302 41.9133 99.6057 41.8754 99.7955 41.8374C100.042 41.7615 100.213 41.6476 100.346 41.4768C100.46 41.306 100.536 41.0972 100.536 40.8504C100.536 40.6037 100.479 40.3949 100.365 40.2241C100.251 40.0343 100.08 39.9204 99.8714 39.8445C99.6627 39.7685 99.283 39.7496 98.7706 39.7496H97.3281V41.9133ZM97.3281 45.2349H99.1312C99.4349 45.2349 99.6627 45.2159 99.7765 45.197C100.004 45.159 100.175 45.0831 100.327 45.0072C100.479 44.9123 100.593 44.7794 100.688 44.6086C100.783 44.4377 100.839 44.229 100.839 44.0012C100.839 43.7355 100.764 43.5077 100.631 43.2989C100.498 43.1091 100.308 42.9573 100.061 42.8813C99.8145 42.8054 99.4729 42.7675 98.9983 42.7675H97.3281V45.2349ZM115.322 46.0891L118.093 38.8765H119.118L122.079 46.0891H120.997L120.162 43.9063H117.144L116.347 46.0891H115.322ZM117.409 43.1281H119.858L119.099 41.1351C118.871 40.5278 118.7 40.0343 118.586 39.6357C118.491 40.0912 118.358 40.5657 118.188 41.0213L117.409 43.1281Z" fill="white"/>
<path d="M59.8983 33.1252H57.0322V16.9918H59.8983V33.1252ZM60.2779 12.2656C60.2779 12.835 60.107 13.2905 59.7844 13.6322C59.4617 13.9738 59.0062 14.1637 58.4557 14.1637C57.9243 14.1637 57.5067 13.9928 57.1651 13.6322C56.8234 13.2716 56.6526 12.816 56.6526 12.2656C56.6526 11.7152 56.8234 11.2596 57.1651 10.899C57.5067 10.5384 57.9433 10.3675 58.4557 10.3675C59.0062 10.3675 59.4427 10.5384 59.7844 10.899C60.107 11.2596 60.2779 11.7152 60.2779 12.2656ZM64.1119 33.1252V21.3003C64.1119 20.1615 64.074 18.719 63.9791 16.9918H66.5035L66.6364 19.2884H66.7123C67.7183 17.5612 69.2177 16.6881 71.2486 16.6881C72.6722 16.6881 73.83 17.2195 74.7221 18.3014C75.6142 19.3643 76.0507 20.9207 76.0507 22.9327V33.1252H73.1847V23.3313C73.1847 20.5032 72.1977 19.0986 70.2427 19.0986C69.3126 19.0986 68.5534 19.4782 67.927 20.2564C67.3007 21.0156 66.978 22.0216 66.978 23.2364V33.1252H64.1119ZM83.5101 33.1252H80.644V19.1555H78.5182V16.9918H80.644V16.1186C80.644 14.6002 80.8718 13.3665 81.3273 12.3605C81.7828 11.3735 82.4092 10.6333 83.2254 10.1588C84.0415 9.68425 84.9336 9.4375 85.9206 9.4375C86.7937 9.4375 87.5529 9.58934 88.2172 9.87405L87.8187 12.0758C87.3441 11.867 86.7937 11.7721 86.1863 11.7721C84.4022 11.7721 83.5291 13.1956 83.5291 16.0427V16.9728H86.9266V19.1366H83.5291V33.1252H83.5101ZM101.067 24.9636C101.067 26.7288 100.782 28.2472 100.213 29.5189C99.6435 30.7906 98.8274 31.7586 97.7834 32.4229C96.7395 33.0873 95.6007 33.4289 94.3669 33.4289C92.4119 33.4289 90.8366 32.6887 89.6218 31.2082C88.4071 29.7277 87.7997 27.6968 87.7997 25.1344C87.7997 22.4392 88.445 20.3513 89.7357 18.8898C91.0264 17.4283 92.6207 16.707 94.5757 16.707C96.5307 16.707 98.1061 17.4473 99.2829 18.9278C100.479 20.4083 101.067 22.4202 101.067 24.9636ZM90.6657 25.0585C90.6657 26.8047 91.0074 28.2852 91.6907 29.462C92.374 30.6388 93.2661 31.2272 94.4049 31.2272C95.5437 31.2272 96.4358 30.6198 97.1191 29.424C97.8024 28.2282 98.1441 26.7667 98.1441 25.0205C98.1441 23.2933 97.8214 21.8508 97.1761 20.655C96.5307 19.4592 95.6197 18.8898 94.4429 18.8898C93.2471 18.8898 92.336 19.4782 91.6717 20.636C91.0074 21.8128 90.6657 23.2933 90.6657 25.0585Z" fill="white"/>
<path d="M104.161 39.6355L103.819 37.3768C104.692 37.2819 105.414 37.0351 105.964 36.6555C106.515 36.2759 106.913 35.6685 107.122 34.8524C107.331 34.0362 107.445 32.6127 107.445 30.6007V16.631H110.311V31.5308C110.311 33.9793 110.007 35.7255 109.4 36.7694C108.792 37.8133 107.995 38.5536 107.008 38.9712C106.059 39.3887 105.11 39.6165 104.161 39.6355ZM110.709 11.9049C110.709 12.4553 110.538 12.9109 110.197 13.2715C109.855 13.6321 109.419 13.8029 108.868 13.8029C108.337 13.8029 107.919 13.6131 107.577 13.2525C107.236 12.8919 107.065 12.4363 107.065 11.9049C107.065 11.3545 107.236 10.8989 107.577 10.5383C107.919 10.1777 108.356 10.0068 108.887 10.0068C109.419 10.0068 109.855 10.1777 110.178 10.5383C110.5 10.8989 110.709 11.3545 110.709 11.9049ZM114.429 32.7645V21.2623C114.429 19.9716 114.392 18.4152 114.297 16.631H116.821L116.954 19.4592H117.049C117.39 18.4911 117.903 17.7319 118.624 17.1625C119.345 16.5931 120.124 16.3274 120.94 16.3274L121.642 16.3653V19.2124C121.528 19.1744 121.262 19.1365 120.883 19.1365C119.896 19.1365 119.042 19.5541 118.339 20.3702C117.637 21.1864 117.277 22.4201 117.277 24.0335V32.7645H114.429Z" fill="white"/>
<rect x="18.6726" y="0.422363" width="11.7679" height="49.3494" rx="5.88397" fill="white"/>
<path d="M49.6298 12.854C49.3261 -4.38038 0.716946 -4.49426 0.0146655 13.784C-0.440868 25.4001 9.86557 33.0683 10.0744 43.3177C10.1693 47.8921 17.5147 50.0558 24.9361 49.9989C25.012 49.9989 25.088 49.9989 25.1829 49.9989C26.2268 49.9989 27.2517 49.942 28.2577 49.8281C34.825 49.1827 40.5761 46.7722 40.3104 42.7294C39.3613 29.1772 48.6428 23.1794 49.6298 12.854ZM29.7192 45.6144C29.7192 47.7782 27.8401 49.5434 25.5435 49.5434H23.4556C21.159 49.5434 19.2799 47.7782 19.2799 45.6144V18.6051C19.2799 16.4413 21.159 14.6761 23.4556 14.6761H25.5435C27.8401 14.6761 29.7192 16.4413 29.7192 18.6051V45.6144ZM24.4996 13.1387C21.2919 13.1387 18.6915 10.4055 18.6915 7.04592C18.6915 3.68636 21.2919 0.953159 24.4996 0.953159C27.7073 0.953159 30.3076 3.68636 30.3076 7.04592C30.3076 10.4055 27.7073 13.1387 24.4996 13.1387Z" fill="#7CB124"/>
</svg>
