<svg width="465" height="45" viewBox="0 0 465 45" fill="none" xmlns="http://www.w3.org/2000/svg">
<ellipse cx="442.5" cy="22.5" rx="22.4996" ry="22.5" fill="white"/>
<path d="M442.5 45C454.919 45 464.999 34.92 464.999 22.5C464.999 10.08 454.919 0 442.5 0C430.08 0 420 10.08 420 22.5C420 34.92 430.08 45 442.5 45ZM451.634 33.105V33.1069C450.121 33.1069 445.342 27.8044 431.91 30.5569C431.555 30.6488 431.092 30.7931 430.83 30.7931C429.114 30.7931 428.786 28.2262 430.631 27.8344C438.062 26.1938 445.655 26.3381 452.131 30.2119C453.676 31.1981 453.02 33.105 451.634 33.105ZM454.078 27.1556C453.866 27.0994 453.928 27.285 452.958 26.775C447.286 23.4187 438.834 22.065 431.312 24.1069C430.877 24.225 430.64 24.3431 430.232 24.3431C428.224 24.3431 427.691 21.3225 429.879 20.7056C438.722 18.2213 448.207 19.6706 454.811 23.5988C455.546 24.0338 455.836 24.5981 455.836 25.3856C455.827 26.3644 455.066 27.1556 454.078 27.1556ZM428.527 13.1213C437.008 10.6388 449.842 11.4225 457.822 16.08C459.867 17.2594 459.063 20.2425 456.888 20.2425L456.886 20.2406C456.414 20.2406 456.123 20.1225 455.714 19.8862C449.259 16.0312 437.707 15.1069 430.234 17.1938C429.905 17.2838 429.497 17.4281 429.062 17.4281C427.864 17.4281 426.949 16.4925 426.949 15.2869C426.949 14.055 427.712 13.3575 428.527 13.1213Z" fill="#7CB124"/>
<ellipse cx="372.5" cy="22.5" rx="22.4996" ry="22.5" fill="white"/>
<path d="M369.697 26.7145L377.016 22.4983L369.697 18.2822V26.7145Z" fill="#7CB124"/>
<path d="M372.5 0C360.075 0 350 10.0755 350 22.5C350 34.9245 360.075 45 372.5 45C384.924 45 394.999 34.9245 394.999 22.5C394.999 10.0755 384.924 0 372.5 0ZM386.558 22.523C386.558 22.523 386.558 27.0861 385.98 29.2865C385.655 30.4908 384.706 31.4405 383.501 31.7646C381.301 32.3438 372.5 32.3438 372.5 32.3438C372.5 32.3438 363.721 32.3438 361.498 31.7416C360.294 31.4175 359.344 30.4675 359.02 29.2631C358.44 27.0861 358.44 22.5 358.44 22.5C358.44 22.5 358.44 17.9372 359.02 15.7369C359.344 14.5325 360.317 13.5595 361.498 13.2354C363.698 12.6562 372.5 12.6562 372.5 12.6562C372.5 12.6562 381.301 12.6562 383.501 13.2584C384.706 13.5825 385.655 14.5325 385.98 15.7369C386.582 17.9372 386.558 22.523 386.558 22.523Z" fill="#7CB124"/>
<g clip-path="url(#clip0_801_823)">
<ellipse cx="302.941" cy="22.5" rx="22.0585" ry="22.5" fill="white"/>
<path d="M324.999 22.5C324.999 10.0723 314.927 0 302.5 0C290.072 0 280 10.0723 280 22.5C280 34.9277 290.072 45 302.5 45C302.631 45 302.763 45 302.895 44.9912V27.4834H298.061V21.8496H302.895V17.7012C302.895 12.8936 305.831 10.2744 310.12 10.2744C312.176 10.2744 313.943 10.4238 314.453 10.4941V15.5215H311.499C309.17 15.5215 308.713 16.6289 308.713 18.2549V21.8408H314.294L313.565 27.4746H308.713V44.1299C318.118 41.4316 324.999 32.7744 324.999 22.5Z" fill="#7CB124"/>
</g>
<g clip-path="url(#clip1_801_823)">
<circle cx="232.5" cy="22.5" r="25.5" fill="white"/>
<path d="M237 22.5C237 24.9853 234.985 27 232.5 27C230.015 27 228 24.9853 228 22.5C228 20.0147 230.015 18 232.5 18C234.985 18 237 20.0147 237 22.5Z" fill="#7CB124"/>
<path d="M243.435 14.2269C243.211 13.6178 242.852 13.0665 242.386 12.614C241.933 12.1481 241.383 11.7895 240.773 11.5647C240.279 11.3728 239.536 11.1443 238.169 11.082C236.689 11.0145 236.246 11 232.5 11C228.754 11 228.311 11.0142 226.832 11.0816C225.464 11.1443 224.721 11.3728 224.227 11.5647C223.618 11.7895 223.067 12.1481 222.614 12.614C222.148 13.0665 221.79 13.6175 221.565 14.2269C221.373 14.7212 221.144 15.4641 221.082 16.8317C221.015 18.3108 221 18.7544 221 22.5002C221 26.2456 221.015 26.6892 221.082 28.1686C221.144 29.5363 221.373 30.2788 221.565 30.7731C221.79 31.3825 222.148 31.9335 222.614 32.386C223.067 32.8519 223.617 33.2105 224.227 33.4353C224.721 33.6276 225.464 33.8561 226.832 33.9184C228.311 33.9858 228.754 34 232.5 34C236.246 34 236.69 33.9858 238.168 33.9184C239.536 33.8561 240.279 33.6276 240.773 33.4353C241.996 32.9634 242.963 31.9965 243.435 30.7731C243.627 30.2788 243.856 29.5363 243.918 28.1686C243.986 26.6892 244 26.2456 244 22.5002C244 18.7544 243.986 18.3108 243.918 16.8317C243.856 15.4641 243.628 14.7212 243.435 14.2269ZM232.5 29.7029C228.522 29.7029 225.297 26.4782 225.297 22.4998C225.297 18.5214 228.522 15.2967 232.5 15.2967C236.478 15.2967 239.703 18.5214 239.703 22.4998C239.703 26.4782 236.478 29.7029 232.5 29.7029ZM239.988 16.6953C239.058 16.6953 238.305 15.9416 238.305 15.0119C238.305 14.0823 239.058 13.3286 239.988 13.3286C240.918 13.3286 241.671 14.0823 241.671 15.0119C241.671 15.9416 240.918 16.6953 239.988 16.6953Z" fill="#7CB124"/>
<path d="M232.5 -3C218.419 -3 207 8.41889 207 22.5C207 36.5811 218.419 48 232.5 48C246.581 48 258 36.5811 258 22.5C258 8.41889 246.581 -3 232.5 -3ZM247.054 28.5369C246.983 30.0956 246.736 31.1598 246.374 32.0913C245.613 34.0582 244.058 35.613 242.091 36.3737C241.16 36.7356 240.096 36.983 238.537 37.0543C236.976 37.1255 236.477 37.1426 232.5 37.1426C228.523 37.1426 228.025 37.1255 226.463 37.0543C224.905 36.983 223.84 36.7356 222.909 36.3737C221.932 36.006 221.047 35.4298 220.315 34.6846C219.571 33.9535 218.994 33.0683 218.627 32.0913C218.265 31.1602 218.017 30.0956 217.946 28.5373C217.874 26.9754 217.857 26.4766 217.857 22.5C217.857 18.5234 217.874 18.0246 217.946 16.4631C218.017 14.9044 218.264 13.8402 218.626 12.9087C218.994 11.9317 219.57 11.0465 220.315 10.3154C221.046 9.57024 221.932 8.99398 222.909 8.62628C223.84 8.26442 224.904 8.01695 226.463 7.94575C228.025 7.87454 228.523 7.85742 232.5 7.85742C236.477 7.85742 236.975 7.87454 238.537 7.94614C240.096 8.01695 241.16 8.26442 242.091 8.62589C243.068 8.99359 243.954 9.57024 244.685 10.3154C245.43 11.0469 246.006 11.9317 246.374 12.9087C246.736 13.8402 246.983 14.9044 247.055 16.4631C247.126 18.0246 247.143 18.5234 247.143 22.5C247.143 26.4766 247.126 26.9754 247.054 28.5369Z" fill="#7CB124"/>
</g>
<circle cx="162.5" cy="22.5" r="22.5" fill="#7CB124"/>
<path d="M148.172 32.87L148.139 32.9104L148.875 33.8121C149.079 34.0629 149.291 34.3063 149.506 34.5374C149.617 34.6564 149.728 34.7746 149.808 34.8476L149.877 34.9158C150.058 35.097 150.24 35.2782 150.434 35.4647C150.593 35.6161 150.759 35.7614 150.946 35.9222L151.021 35.9838C151.08 36.0277 151.135 36.0737 151.192 36.1211L151.3 36.2103C151.535 36.4054 151.77 36.5839 151.977 36.7274C152.249 36.9315 152.547 37.1348 152.885 37.3496L152.85 37.3638L153.139 37.508C153.237 37.5682 153.334 37.6284 153.441 37.6917C153.739 37.865 154.039 38.0296 154.304 38.1576C154.407 38.2115 154.516 38.2662 154.626 38.3198L154.83 38.4184C154.95 38.473 155.072 38.5197 155.192 38.5726C155.311 38.6252 155.431 38.676 155.552 38.7265C155.601 38.7469 155.65 38.7698 155.699 38.7895L155.99 38.9517H156.112C156.113 38.9517 156.114 38.9524 156.115 38.9524L156.343 39.0381L156.35 39.0347C156.417 39.0579 156.483 39.0828 156.549 39.1046C156.628 39.1308 156.709 39.1537 156.788 39.1793C156.894 39.2132 156.999 39.2464 157.105 39.2782C157.136 39.2875 157.165 39.2982 157.196 39.3065C157.268 39.3328 157.318 39.3449 157.326 39.3463C157.465 39.3875 157.599 39.4227 157.728 39.4553C157.784 39.4701 157.841 39.4822 157.898 39.4964C157.914 39.4999 157.935 39.5058 157.951 39.5092C157.958 39.5113 157.965 39.512 157.972 39.5134C158.46 39.6323 158.954 39.733 159.457 39.8087C159.492 39.8146 159.527 39.8222 159.563 39.8278L159.75 39.8513C159.855 39.8641 159.959 39.8748 160.064 39.8866C160.158 39.8973 160.25 39.9094 160.344 39.918C160.357 39.9194 160.372 39.9215 160.386 39.9229C160.629 39.9454 160.869 39.9668 161.084 39.9744C161.388 39.991 161.693 40 162 40C162.255 40 162.501 39.9931 162.739 39.9817C162.837 39.9775 162.934 39.9716 163.032 39.9661C163.225 39.9554 163.425 39.9398 163.636 39.9201C163.688 39.9149 163.74 39.9108 163.793 39.9052C163.832 39.9007 163.867 39.8987 163.909 39.8938L164.166 39.8634C164.385 39.8385 164.613 39.8046 164.777 39.7721C164.834 39.7634 164.891 39.7486 164.947 39.7392C165.152 39.7032 165.355 39.6666 165.557 39.6234C165.559 39.6227 165.561 39.6227 165.564 39.622C165.722 39.5912 165.886 39.5538 166.034 39.5186C166.102 39.5026 166.169 39.4829 166.237 39.4653C166.241 39.4639 166.246 39.4632 166.25 39.4618C166.357 39.4342 166.464 39.4079 166.569 39.3788L166.893 39.2861C166.948 39.2692 166.994 39.2529 167.048 39.2349C167.05 39.2343 167.051 39.2336 167.053 39.2329C167.197 39.1876 167.343 39.1416 167.466 39.0976L167.701 39.024C167.982 38.9219 168.262 38.813 168.511 38.7068C168.543 38.694 168.574 38.6778 168.607 38.6643C168.615 38.6605 168.623 38.6563 168.631 38.6529C168.877 38.5501 169.122 38.4412 169.36 38.3284C169.641 38.196 169.913 38.0493 170.182 37.9027C170.421 37.773 170.648 37.6377 170.874 37.5011L171.137 37.3382C171.316 37.2213 171.49 37.1072 171.665 36.984C171.742 36.9342 171.825 36.8786 171.888 36.8301C172.051 36.7112 172.214 36.5908 172.374 36.467L172.52 36.3577C172.74 36.1837 172.959 36.0014 173.171 35.8202L173.372 35.648L173.381 35.6296C173.544 35.4837 173.703 35.3301 173.869 35.1707C174.086 34.9625 174.301 34.7387 174.511 34.5125C174.72 34.2887 174.922 34.0563 175.115 33.8249L175.868 32.9208L175.827 32.8713C177.821 30.0854 179 26.6783 179 23C179 19.3217 177.821 15.9145 175.828 13.1293L175.869 13.0798L175.116 12.1761C174.924 11.9443 174.721 11.7126 174.511 11.4861C174.308 11.2685 174.099 11.0582 173.86 10.8203C173.701 10.6688 173.544 10.5169 173.382 10.371L173.172 10.1804C172.96 9.99919 172.741 9.81657 172.52 9.64294L172.375 9.534C172.215 9.40983 172.055 9.29154 171.902 9.18052C171.827 9.1238 171.743 9.06708 171.665 9.01762C171.491 8.89414 171.317 8.78035 171.138 8.66345L170.904 8.51023L170.875 8.50055C170.649 8.36358 170.422 8.22835 170.186 8.10003C169.913 7.952 169.641 7.80466 169.361 7.67323C169.083 7.54146 168.797 7.41107 168.537 7.30558C168.263 7.18798 167.983 7.07869 167.702 6.97735L167.494 6.91302C167.296 6.84212 167.099 6.77917 166.864 6.70688L166.565 6.62111C166.408 6.57649 166.243 6.53187 166.078 6.49314L165.882 6.44541C165.788 6.42431 165.692 6.40217 165.6 6.38453L165.463 6.33992H165.394C165.242 6.30602 165.085 6.27697 164.931 6.25138L164.831 6.2372C164.612 6.19535 164.384 6.16145 164.206 6.14174L163.856 6.09989C163.824 6.09643 163.793 6.09435 163.761 6.09124C163.735 6.08847 163.708 6.0864 163.682 6.08432C163.456 6.06288 163.233 6.04524 163.026 6.03383C162.936 6.02829 162.845 6.02345 162.754 6.01895C162.213 5.99163 161.649 5.99509 161.174 6.02137C161.025 6.02829 160.876 6.04178 160.727 6.05319C160.614 6.06219 160.5 6.06668 160.388 6.07775C160.376 6.07948 160.363 6.08086 160.351 6.08225C160.247 6.09193 160.144 6.10542 160.041 6.11753C159.936 6.12963 159.832 6.13966 159.727 6.15315L159.577 6.1701C159.538 6.17563 159.498 6.18428 159.46 6.1905C159.1 6.24515 158.744 6.31294 158.391 6.38972L158.377 6.39249C158.252 6.41566 158.135 6.44402 157.996 6.48034C157.953 6.48933 157.912 6.50075 157.87 6.51078C157.824 6.52219 157.779 6.53187 157.734 6.54329C157.605 6.5758 157.48 6.60831 157.374 6.64048C157.339 6.64947 157.278 6.66503 157.202 6.69201L157.168 6.70135C156.946 6.76153 156.732 6.82932 156.554 6.894C156.486 6.91648 156.42 6.94138 156.352 6.9649L156.343 6.96109L156.1 7.0524C156.099 7.05344 156.097 7.05344 156.096 7.05413L155.964 7.0569L155.488 7.29831C155.389 7.33947 155.291 7.3834 155.193 7.42663C155.073 7.47955 154.95 7.52728 154.83 7.58089L154.627 7.67946C154.517 7.73411 154.407 7.78772 154.357 7.81608C154.177 7.90185 153.997 7.99593 153.861 8.07478C153.745 8.13635 153.623 8.20275 153.506 8.27089L153.167 8.47357C153.161 8.47703 153.154 8.48118 153.149 8.48567L152.85 8.63647L152.885 8.64996C152.831 8.68455 152.775 8.71775 152.72 8.75337L152.578 8.84953L152.573 8.85402C152.377 8.98407 152.192 9.11446 152.044 9.22514C152 9.25419 151.956 9.28601 151.888 9.33616C151.728 9.44822 151.57 9.56651 151.417 9.69759C151.375 9.72941 151.34 9.75708 151.311 9.78025L150.972 10.0608C150.79 10.2102 150.606 10.3689 150.408 10.5588L150.193 10.7677C150.055 10.8912 149.924 11.0212 149.793 11.1651C149.693 11.2609 149.601 11.3598 149.511 11.4577C149.29 11.6936 149.079 11.9371 148.875 12.1878L148.139 13.0898L148.172 13.13C146.178 15.9152 145 19.3217 145 23C145 26.6783 146.178 30.0847 148.172 32.87ZM160.593 8.90486C161.056 8.85886 161.525 8.83327 162 8.83327C162.965 8.83327 163.907 8.93184 164.818 9.11653C164.834 9.12034 164.851 9.12241 164.867 9.12656L165.033 9.18121H165.08C167.799 9.78682 170.224 11.1717 172.109 13.0947C170.536 14.6898 168.596 15.8997 166.482 16.608L166.47 16.572L166.412 16.5904C166.393 16.5451 166.37 16.5011 166.351 16.4558C166.239 16.1909 166.121 15.9294 165.996 15.67C165.954 15.5815 165.913 15.4915 165.869 15.4037C165.699 15.0668 165.52 14.7344 165.329 14.4093C165.3 14.3599 165.267 14.3121 165.237 14.2634C165.071 13.9888 164.898 13.7193 164.717 13.4544C164.651 13.3582 164.584 13.2638 164.516 13.1691C164.355 12.9425 164.187 12.7208 164.015 12.5026C163.949 12.4182 163.884 12.3324 163.815 12.2497C163.577 11.9592 163.332 11.6746 163.075 11.4003C163.05 11.374 163.024 11.3494 162.999 11.3232C162.764 11.0759 162.522 10.8365 162.274 10.6034C162.189 10.5235 162.103 10.446 162.016 10.3682C161.812 10.1849 161.605 10.0071 161.393 9.83352C161.304 9.76123 161.217 9.68756 161.127 9.61666C160.835 9.38804 160.539 9.16565 160.233 8.95571C160.322 8.94464 160.408 8.92458 160.498 8.91559C160.53 8.91178 160.562 8.90763 160.593 8.90486ZM164.898 36.8664C164.872 36.8727 164.843 36.8779 164.816 36.8841C164.37 36.9747 163.916 37.0449 163.455 37.0923C163.448 37.093 163.44 37.0937 163.433 37.0944C162.962 37.1418 162.484 37.1667 162 37.1667C161.524 37.1667 161.054 37.1411 160.59 37.0951C160.561 37.0923 160.531 37.0888 160.502 37.0854C160.41 37.0754 160.323 37.0556 160.233 37.0442C160.539 36.8346 160.835 36.6122 161.127 36.3833C161.217 36.3124 161.304 36.2387 161.393 36.1664C161.605 35.9931 161.812 35.8154 162.016 35.6317C162.102 35.5539 162.189 35.4768 162.274 35.3965C162.523 35.1634 162.765 34.9241 162.999 34.6768C163.023 34.6508 163.05 34.6259 163.075 34.5996C163.332 34.3257 163.577 34.0407 163.815 33.7505C163.884 33.6675 163.949 33.5818 164.015 33.4977C164.187 33.2795 164.355 33.0571 164.516 32.8309C164.584 32.7361 164.651 32.641 164.717 32.5455C164.898 32.2806 165.071 32.0115 165.237 31.7366C165.267 31.6878 165.3 31.6397 165.329 31.5906C165.521 31.2655 165.699 30.9341 165.869 30.5962C165.913 30.5084 165.954 30.4185 165.996 30.3299C166.121 30.0712 166.239 29.8101 166.351 29.5445C166.37 29.4991 166.392 29.4552 166.412 29.4099L166.47 29.4282L166.482 29.3919C168.596 30.1003 170.536 31.3101 172.109 32.9052C170.183 34.8725 167.692 36.2826 164.898 36.8664ZM163.582 28.8174C163.429 29.1547 163.26 29.4843 163.082 29.807C163.047 29.8703 163.013 29.9346 162.977 29.9968C162.79 30.324 162.589 30.6436 162.376 30.9546C162.333 31.0185 162.288 31.0808 162.243 31.143C162.018 31.4612 161.785 31.7729 161.535 32.071C161.528 32.0779 161.522 32.0852 161.515 32.0928C161.267 32.3875 161.006 32.6694 160.735 32.9429C160.685 32.9938 160.635 33.0457 160.584 33.0958C160.314 33.3621 160.032 33.6174 159.741 33.8616C159.687 33.9076 159.63 33.9522 159.575 33.9968C159.27 34.2448 158.958 34.4841 158.634 34.7065C158.633 34.7076 158.631 34.7089 158.63 34.7096C158.305 34.932 157.967 35.1375 157.624 35.3322C157.56 35.3682 157.497 35.4052 157.434 35.4404C157.098 35.6248 156.754 35.7953 156.404 35.952C156.383 35.961 156.362 35.9696 156.341 35.979C155.993 35.8264 155.651 35.6642 155.319 35.4858C155.279 35.4647 155.24 35.4432 155.201 35.4221C153.975 34.7484 152.863 33.8972 151.891 32.9052C154.927 29.8191 159.245 28.2651 163.611 28.7586C163.602 28.778 163.591 28.7977 163.582 28.8174ZM154.067 11.2692C154.077 11.263 154.087 11.2557 154.096 11.2488C154.801 10.7736 155.553 10.3655 156.341 10.0206C156.362 10.0303 156.386 10.039 156.408 10.049C156.756 10.2046 157.098 10.3741 157.431 10.5567C157.497 10.5927 157.562 10.6304 157.628 10.6677C157.97 10.8628 158.306 11.0669 158.631 11.2886C158.633 11.29 158.635 11.292 158.637 11.2934C158.961 11.5151 159.272 11.7538 159.575 12.0011C159.632 12.0464 159.687 12.091 159.743 12.137C160.034 12.3815 160.315 12.6364 160.585 12.9027C160.637 12.9522 160.685 13.0041 160.736 13.0549C161.007 13.3292 161.27 13.6118 161.518 13.9064C161.523 13.9134 161.53 13.9199 161.536 13.9268C161.786 14.226 162.02 14.5376 162.245 14.8555C162.289 14.9178 162.334 14.9804 162.378 15.0433C162.59 15.3542 162.791 15.6738 162.979 16.0017C163.015 16.0646 163.048 16.1286 163.083 16.1916C163.262 16.5153 163.43 16.8439 163.583 17.1811C163.592 17.2008 163.602 17.2198 163.611 17.2406C159.244 17.7373 154.927 16.1795 151.891 13.0933C152.553 12.4175 153.28 11.8032 154.067 11.2692ZM162 20.1666C162.835 20.1666 163.672 20.0981 164.503 19.9754C164.719 20.9656 164.833 21.9779 164.833 23C164.833 24.022 164.719 25.0344 164.503 26.0246C163.672 25.9021 162.835 25.8333 162 25.8333C157.523 25.8333 153.282 27.581 150.112 30.6782C148.676 28.4633 147.833 25.8305 147.833 23C147.833 20.1694 148.676 17.5367 150.112 15.3217C153.282 18.4193 157.523 20.1666 162 20.1666ZM173.882 30.6889C172.026 28.8814 169.776 27.5028 167.326 26.6911L167.35 26.6146L167.277 26.5977C167.531 25.4196 167.667 24.2157 167.667 23C167.667 21.7846 167.531 20.5803 167.277 19.4016L167.35 19.3846L167.326 19.3082C169.776 18.4964 172.026 17.1182 173.882 15.3103C175.321 17.528 176.167 20.1652 176.167 23C176.167 25.8347 175.321 28.4719 173.882 30.6889Z" fill="white"/>
<g clip-path="url(#clip2_801_823)">
<circle cx="92.5" cy="22.5" r="22.5" fill="white"/>
<path d="M88.5221 17.7837C88.5221 15.6664 87.0816 15.6664 87.0816 15.6664H81.1554V20.2096H86.7143C87.6749 20.2091 88.5221 19.9019 88.5221 17.7837Z" fill="#7CB124"/>
<path d="M87.0821 23.3477H81.1554V28.789H86.8084C87.6588 28.7646 89.2283 28.4983 89.2283 26.1441C89.2283 23.3192 87.0821 23.3477 87.0821 23.3477Z" fill="#7CB124"/>
<path d="M102.254 20.2091C99.1095 20.2091 98.671 23.3477 98.671 23.3477H105.359C105.359 23.3477 105.399 20.2091 102.254 20.2091Z" fill="#7CB124"/>
<path d="M92.9018 0C80.102 0 70 10.1057 70 22.5C70 34.8943 79.6429 45 92.9592 45C105.354 45 115.344 34.8369 115.344 22.4426C115.344 10.0483 105.297 0 92.9018 0ZM97.7948 13.2465H106.195V15.7537H97.7948V13.2465ZM93.5492 26.3966C93.5492 32.6108 87.0821 32.4064 87.0821 32.4064H76.4873V12.0471H87.0816C90.3014 12.0471 92.843 13.8246 92.843 17.4678C92.843 21.1114 89.7362 21.3424 89.7362 21.3424C93.8316 21.3424 93.5492 26.3966 93.5492 26.3966ZM102.294 29.6077C105.679 29.6077 105.559 27.4174 105.559 27.4174H109.142C109.142 33.2302 102.175 32.8321 102.175 32.8321C93.8146 32.8321 94.3523 25.0489 94.3523 25.0489C94.3523 25.0489 94.3459 17.2272 102.174 17.2272C110.415 17.2272 109.261 26.0642 109.261 26.0642H98.7114C98.7114 29.8474 102.294 29.6077 102.294 29.6077Z" fill="#7CB124"/>
</g>
<g clip-path="url(#clip3_801_823)">
<rect width="44.9993" height="45" rx="22.4996" fill="white"/>
<ellipse cx="22.4996" cy="22.5" rx="22.4996" ry="22.5" fill="white"/>
<path d="M22.4996 0C10.0753 0 0 10.0755 0 22.5C0 34.9245 10.0753 45 22.4996 45C34.9239 45 44.9993 34.9245 44.9993 22.5C44.9993 10.0755 34.9239 0 22.4996 0ZM15.9615 34.0137H10.4818V17.5277H15.9615V34.0137ZM13.2218 15.2765H13.1861C11.3473 15.2765 10.1581 14.0107 10.1581 12.4286C10.1581 10.8109 11.3837 9.58008 13.2582 9.58008C15.1327 9.58008 16.2863 10.8109 16.322 12.4286C16.322 14.0107 15.1327 15.2765 13.2218 15.2765ZM35.7201 34.0137H30.2411V25.1941C30.2411 22.9776 29.4477 21.4659 27.465 21.4659C25.9513 21.4659 25.0498 22.4856 24.6536 23.4699C24.5087 23.8221 24.4734 24.3145 24.4734 24.8071V34.0137H18.994C18.994 34.0137 19.0658 19.0743 18.994 17.5277H24.4734V19.8619C25.2015 18.7386 26.5044 17.1407 29.4116 17.1407C33.0168 17.1407 35.7201 19.497 35.7201 24.5606V34.0137Z" fill="#7CB124"/>
</g>
<defs>
<clipPath id="clip0_801_823">
<rect x="280" width="44.9994" height="45" rx="22.4997" fill="white"/>
</clipPath>
<clipPath id="clip1_801_823">
<rect x="210" width="44.9993" height="45" rx="22.4996" fill="white"/>
</clipPath>
<clipPath id="clip2_801_823">
<rect x="70" width="45.3444" height="45" rx="22.5" fill="white"/>
</clipPath>
<clipPath id="clip3_801_823">
<rect width="44.9993" height="45" rx="22.4996" fill="white"/>
</clipPath>
</defs>
</svg>
